<svg width="16" height="17" viewBox="0 0 16 17" fill="none" xmlns="http://www.w3.org/2000/svg">
<path fill-rule="evenodd" clip-rule="evenodd" d="M7.66671 2.33334C4.44505 2.33334 1.83337 4.94502 1.83337 8.16668C1.83337 11.3883 4.44505 14 7.66671 14C10.8884 14 13.5 11.3883 13.5 8.16668C13.5 4.94502 10.8884 2.33334 7.66671 2.33334ZM0.833374 8.16668C0.833374 4.39273 3.89276 1.33334 7.66671 1.33334C11.4407 1.33334 14.5 4.39273 14.5 8.16668C14.5 9.87368 13.8741 11.4345 12.8393 12.6321L15.0203 14.8131C15.2155 15.0084 15.2155 15.325 15.0203 15.5202C14.825 15.7155 14.5084 15.7155 14.3132 15.5202L12.1322 13.3393C10.9345 14.3741 9.37372 15 7.66671 15C3.89276 15 0.833374 11.9406 0.833374 8.16668Z" fill="white"/>
</svg>
